<svg xmlns="http://www.w3.org/2000/svg" xmlns:xlink="http://www.w3.org/1999/xlink" id="Layer_1" x="0" y="0" version="1.1" viewBox="0 0 56 56" xml:space="preserve" style="enable-background:new 0 0 56 56"><style type="text/css">.st0,.st1{stroke:#333}.st0{fill:none;stroke-linecap:round;stroke-linejoin:round}.st1{fill:#333}.st1,.st2,.st3{stroke-linecap:round;stroke-linejoin:round}.st2{fill:none;stroke:#fff;stroke-width:.5}.st3{fill:#fff;stroke:#333}.st4{fill:#333}.st5{fill:#fff;stroke:#fff;stroke-width:.5;stroke-linecap:round;stroke-linejoin:round}</style><path d="M31.6,11.4L13.7,4.7c-0.3-0.1-0.7-0.1-1,0c-0.3,0.1-0.6,0.4-0.7,0.7l-3.4,9.1" class="st0"/><path d="M24.4,16.4H4.3c-0.4,0-0.8,0.2-1,0.4c-0.3,0.3-0.4,0.6-0.4,1v17.4c0,0.4,0.2,0.8,0.4,1c0.3,0.3,0.6,0.4,1,0.4	h20.1" class="st0"/><path d="M10.4,22.4H7.3v3.1h3.1V22.4z" class="st0"/><path d="M9.5,23.4H8.2v1.2h1.2V23.4z" class="st0"/><path d="M10.4,31.7H7.3v3.1h3.1V31.7z" class="st0"/><path d="M9.5,32.6H8.2v1.2h1.2V32.6z" class="st0"/><path d="M19.6,22.4h-3.1v3.1h3.1V22.4z" class="st0"/><path d="M18.7,23.4h-1.2v1.2h1.2V23.4z" class="st0"/><path d="M11.9,22.4v3.1" class="st0"/><path d="M13.5,22.4H15v3.1h-1.5V24" class="st0"/><path d="M7.3,27.1h3.1" class="st0"/><path d="M7.3,28.6v1.5h1.5v-1.5h1.5v1.5" class="st0"/><path d="M11.9,27.1v3.1h3.8" class="st0"/><path d="M13.5,27.1v1.5" class="st0"/><path d="M11.9,31.7h1.5v1.5h-1.5v1.5h1.5" class="st0"/><path d="M15,28.6v-1.5h2.3v3.1" class="st0"/><path d="M18.9,27.1h0.8v3.1h-0.8" class="st0"/><path d="M19.6,31.7v3.1" class="st0"/><path d="M15,31.7h3.1" class="st0"/><path d="M15,33.2v1.5" class="st0"/><path d="M16.6,33.2h1.5v1.5h-1.5" class="st0"/><path d="M45.9,36.8c0-7.3,0-14.7,0-22c0-0.2-0.1-0.5-0.1-0.7c-0.1-0.2-0.2-0.4-0.4-0.6c-0.2-0.2-0.4-0.3-0.6-0.4	c-0.2-0.1-0.5-0.1-0.7-0.1H28c-0.2,0-0.5,0-0.7,0.1c-0.2,0.1-0.4,0.2-0.6,0.4c-0.2,0.2-0.3,0.4-0.4,0.6s-0.1,0.5-0.1,0.7v31.7	c0,0.2,0,0.5,0.1,0.7c0.1,0.2,0.2,0.4,0.4,0.6c0.2,0.2,0.4,0.3,0.6,0.4c0.2,0.1,0.5,0.1,0.7,0.1c3.7,0.1,7.5,0.1,11.3,0	c2.3,0,4.6-0.1,6.8-0.2C46.1,44.4,46,40.6,45.9,36.8z" class="st1"/><path d="M34.6,15.3h4.2" class="st2"/><path d="M36,46.8c0.9,0,1.6-0.7,1.6-1.5c0-0.9-0.7-1.5-1.6-1.5c-0.9,0-1.6,0.7-1.6,1.5C34.5,46.1,35.2,46.8,36,46.8z" class="st0"/><path d="M39.4,41.8c-6,0-10.4,0-10.8,0c-0.1,0-0.3,0-0.4-0.2C28,41.5,28,41.4,28,41.2V18.4c0-0.2,0.1-0.3,0.2-0.4	c0.1-0.1,0.3-0.2,0.4-0.2h14.9c0.1,0,0.2,0,0.2,0s0.1,0.1,0.2,0.1c0.1,0.1,0.1,0.1,0.1,0.2s0,0.2,0,0.2v19.2c0,0.8,0,1.7,0,2.5	c0,0.5,0,1.1,0,1.6C42.5,41.8,41,41.8,39.4,41.8z" class="st3"/><path d="M29.5,25.2v-2h2" class="st0"/><path d="M42.6,25.2v-2h-2" class="st0"/><path d="M29.5,34.4v2h2" class="st0"/><path d="M42.6,34.4v2h-2" class="st0"/><path d="M33.4,24.6h-2.6v2.6h2.6V24.6z" class="st0"/><path d="M32.6,25.5h-0.9v0.9h0.9V25.5z" class="st4"/><path d="M33.4,32.4h-2.6V35h2.6V32.4z" class="st0"/><path d="M32.6,33.2h-0.9v0.9h0.9V33.2z" class="st4"/><path d="M41.2,24.6h-2.6v2.6h2.6V24.6z" class="st0"/><path d="M40.4,25.5h-0.9v0.9h0.9V25.5z" class="st4"/><path d="M34.7,24.6v2.6" class="st0"/><path d="M36,24.6h1.3v2.6H36v-1.3" class="st0"/><path d="M30.9,28.5h2.6" class="st0"/><path d="M30.9,29.8v1.3h1.3v-1.3h1.3v1.3" class="st0"/><path d="M34.7,28.5v2.6H38" class="st0"/><path d="M36,28.5v1.3" class="st0"/><path d="M34.7,32.4H36v1.3h-1.3V35H36" class="st0"/><path d="M37.3,29.8v-1.3h1.9v2.6" class="st0"/><path d="M40.6,28.5h0.6v2.6h-0.6" class="st0"/><path d="M41.2,32.4V35" class="st0"/><path d="M37.3,32.4h2.6" class="st0"/><path d="M37.3,33.7V35" class="st0"/><path d="M38.6,33.7h1.3V35h-1.3" class="st0"/><path d="M46.8,51.4c3.5,0,6.4-2.8,6.4-6.4s-2.8-6.4-6.4-6.4c-3.5,0-6.4,2.8-6.4,6.4S43.3,51.4,46.8,51.4z" class="st1"/><path d="M45.4,48.5c-0.1,0-0.3,0-0.4-0.1c-0.1-0.1-0.2-0.1-0.3-0.2l-2-2c-0.2-0.2-0.3-0.4-0.3-0.7	c0-0.3,0.1-0.5,0.3-0.7c0.2-0.2,0.4-0.3,0.7-0.3c0.3,0,0.5,0.1,0.7,0.3l1.3,1.3l4.1-4.1c0.2-0.2,0.4-0.3,0.7-0.3	c0.3,0,0.5,0.1,0.7,0.3c0.2,0.2,0.3,0.4,0.3,0.7c0,0.3-0.1,0.5-0.3,0.7l-4.8,4.8c-0.1,0.1-0.2,0.2-0.3,0.2	C45.7,48.4,45.6,48.5,45.4,48.5L45.4,48.5z" class="st5"/><path d="M11,7.9L24.6,13" class="st0"/><path d="M2.8,20.8h21.5" class="st0"/><path d="M22.4,41.4" class="st3"/><rect width="20.1" height="4.4" x="4.3" y="16.4" class="st1"/><rect width="1" height="3.5" x="3.1" y="17" class="st1"/><path d="M30.5,15.1l-17-6.3c-0.7-0.3-1-1-0.8-1.7L13.1,6c0.3-0.7,1-1,1.7-0.8l17,6.3c0.7,0.3,1,1,0.8,1.7l-0.4,1.2	C31.9,15,31.2,15.4,30.5,15.1z" class="st1"/><rect width="1" height="2.8" x="12" y="5" class="st1" transform="matrix(0.9387 0.3447 -0.3447 0.9387 2.9775 -3.9113)"/><path d="M33,15.9c0.3,0,0.6-0.3,0.6-0.6s-0.3-0.6-0.6-0.6c-0.3,0-0.6,0.3-0.6,0.6S32.6,15.9,33,15.9z" class="st5"/></svg>